<svg clip-rule="evenodd" fill-rule="evenodd" height="512" image-rendering="optimizeQuality" shape-rendering="geometricPrecision" text-rendering="geometricPrecision" viewBox="0 0 512 512" width="512" xmlns="http://www.w3.org/2000/svg"><g id="Layer_x0020_1"><path d="m371 512h-230c-22 0-40-18-40-40v-432c0-21 18-40 40-40h230c22 0 40 18 40 40v432c0 22-18 40-40 40zm-4-109h-222c-10 0-10-15 0-15h222c10 0 10 15 0 15zm-49-35h-124c-10 0-10-15 0-15h124c10 0 10 15 0 15zm-62-42c-66 0-120-54-120-120s54-120 120-120 120 54 120 120-54 120-120 120zm0-225c-58 0-105 47-105 105s47 105 105 105 105-47 105-105-47-105-105-105zm0 58c-12 0-22-10-22-21 0-12 10-22 22-22 11 0 21 10 21 22 0 11-9 21-21 21zm0-28c-9 0-9 13 0 13 8 0 8-13 0-13zm30 145h-54c-4 0-7-3-7-8 0-25-2-24 17-24v-42c-17 0-15-1-15-26 0-4 4-7 8-7h34c4 0 8 3 8 7v68c7 0 17-2 17 7v17c-1 5-4 8-8 8zm-7-15v-3c-6 0-17 2-17-7v-67h-20v4c5 0 14-2 14 7v56c0 9-10 7-17 7v3zm4 203h-54c-10 0-10-15 0-15h54c10 0 10 15 0 15zm30-409h-114c-4 0-7-3-8-6l-4-35h-46c-14 0-26 12-26 26v432c0 14 12 26 26 26h230c14 0 26-12 26-26v-432c0-14-12-26-26-26h-45l-5 34c-1 4-4 7-8 7zm-111-41 3 26h103l3-26z" fill="#3F51B5"/><g fill="#fefefe"><path d="m256 311c58 0 105-47 105-105s-47-105-105-105-105 47-105 105 47 105 105 105zm21-173c0 11-9 21-21 21s-22-10-22-21c0-12 10-22 22-22 11 0 21 10 21 22zm0 106c7 0 17-2 17 7v17c-1 5-4 8-8 8h-54c-4 0-7-3-7-8 0-25-2-24 17-24v-42c-17 0-15-1-15-26 0-4 4-7 8-7h34c4 0 8 3 8 7z"/><path d="m262 251v-67h-20v4c5 0 14-2 14 7v56c0 9-10 7-17 7v3h40v-3c-6 0-17 2-17-7z"/><path d="m256 144c8 0 8-13 0-13-9 0-9 13 0 13z"/></g><path d="m256 86c66 0 120 54 120 120s-54 120-120 120-120-54-120-120 54-120 120-120zm-62 267h124c10 0 10 15 0 15h-124c-10 0-10-15 0-15zm-49 35h222c10 0 10 15 0 15h-222c-10 0-10-15 0-15zm138 61c10 0 10 15 0 15h-54c-10 0-10-15 0-15zm-142 49h230c14 0 26-12 26-26v-432c0-14-12-26-26-26h-45l-5 34c-1 4-4 7-8 7h-114c-4 0-7-3-8-6l-4-35h-46c-14 0-26 12-26 26v432c0 14 12 26 26 26z" fill="#ffffff"/><path d="m205 40h103l3-26h-109z" fill="#ffffff"/></g></svg>