<svg id="glipy_copy_6" viewBox="0 0 64 64" xmlns="http://www.w3.org/2000/svg" data-name="glipy copy 6"><g fill="#3F51B5"><path d="m14.875 25.71884c7.95349.14607 13.417-8.78376 9.70441-15.76708-5.18155-10.1-20.43521-6.58092-20.57932 4.89235a10.91164 10.91164 0 0 0 10.87491 10.87473zm5.13233-7.87349h-10.25467a1.00057 1.00057 0 0 1 .00006-2.00091h10.25458a1.00057 1.00057 0 0 1 0 2.00091zm-10.25467-6.00272h6.25283a1.00057 1.00057 0 0 1 -.00006 2.00091h-6.25277a1.00057 1.00057 0 0 1 0-2.00091z"/><path d="m32.01274 8.74119a23.191 23.191 0 0 1 12.7758 3.83175 1.00448 1.00448 0 1 0 1.10046-1.68075 25.31642 25.31642 0 0 0 -13.87626-4.15191 24.90343 24.90343 0 0 0 -6.503.86044 11.88556 11.88556 0 0 1 1.01047 1.79079 23.43575 23.43575 0 0 1 5.49253-.65032z"/><path d="m14.2547 45.98809-.07.87039a23.04509 23.04509 0 0 1 -5.41246-14.87673 23.43544 23.43544 0 0 1 .65032-5.49248 10.35158 10.35158 0 0 1 -1.79079-1.02048 25.18959 25.18959 0 0 0 4.88215 22.53021l-1.00045-.14008a1.00029 1.00029 0 1 0 -.2801 1.98088l3.60161.51024a1.00454 1.00454 0 0 0 1.13051-.91039l.29011-3.28151a1.00419 1.00419 0 0 0 -2.0009-.17005z"/><path d="m32.01274 55.22225a23.19063 23.19063 0 0 1 -12.77568-3.83175 1.00473 1.00473 0 0 0 -1.1006 1.68069 25.269 25.269 0 0 0 20.37922 3.29159 11.88359 11.88359 0 0 1 -1.01041-1.79085 23.43306 23.43306 0 0 1 -5.49253.65032z"/><path d="m49.64071 17.94537.12011-.95045a23.0639 23.0639 0 0 1 5.49247 14.98683 23.43581 23.43581 0 0 1 -.65031 5.49247 10.52907 10.52907 0 0 1 1.79078 1.01047 25.15647 25.15647 0 0 0 -5.13226-22.82032l1.12044.14a1.0029 1.0029 0 0 0 .24016-1.99089l-3.43155-.42017a1.01541 1.01541 0 0 0 -1.1205.87039l-.42023 3.43148a1.00337 1.00337 0 0 0 1.99089.25019z"/><path d="m55.77349 40.50556c-6.93319-5.51983-17.6212-.27569-17.49779 8.61413a10.89957 10.89957 0 0 0 10.8748 10.87468c10.37371-.02309 14.76583-13.2698 6.62299-19.48881zm-11.75532 5.61259h6.25283a1.00057 1.00057 0 0 1 -.00006 2.00091h-6.25277a1.00057 1.00057 0 0 1 0-2.00091zm10.25464 6.00272h-10.25464a1.00057 1.00057 0 0 1 .00006-2.00087h10.25458a1.00057 1.00057 0 0 1 0 2.00087z"/><path d="m22.00821 34.833v2.041a2.12421 2.12421 0 0 0 2.131 2.12095h15.7571a2.122 2.122 0 0 0 2.121-2.12095v-2.041a5.17623 5.17623 0 0 0 -4.322-4.99231 7.72668 7.72668 0 0 1 -11.35505-.00989 5.19714 5.19714 0 0 0 -4.33205 5.0022z"/><path d="m37.70531 24.64841c-.23765-7.50871-11.14689-7.50907-11.38515-.00012.23661 7.5219 11.14701 7.52501 11.38515.00012z"/></g></svg>