<svg height="512" viewBox="0 0 64 64" width="512" xmlns="http://www.w3.org/2000/svg"><g id="info-support-book-help-service"><path d="m57 57h-25-25v-36h-4v40h58v-40h-4z" fill="#9bc9ff"/><path d="m32 3a14 14 0 0 0 -4.34 27.31l4.34 7.76 4.34-7.76a14 14 0 0 0 -4.34-27.31zm0 6a2 2 0 1 1 -2 2 2 2 0 0 1 2-2zm-2 17v-10h4v10z" fill="#9bc9ff"/><path d="m36 43h17v8h-17z" fill="#9bc9ff"/><g fill="#1e81ce"><path d="m61 20h-3v-3a1 1 0 0 0 -1-1h-10.05a14.982 14.982 0 0 0 -29.9 0h-10.05a1 1 0 0 0 -1 1v3h-3a1 1 0 0 0 -1 1v40a1 1 0 0 0 1 1h58a1 1 0 0 0 1-1v-40a1 1 0 0 0 -1-1zm-29-16a13 13 0 0 1 4.03 25.36.984.984 0 0 0 -.56.46l-3.47 6.2-3.47-6.2a.984.984 0 0 0 -.56-.46 13 13 0 0 1 4.03-25.36zm-24 14h9.04a14.951 14.951 0 0 0 9.93 13.13l4.16 7.43a1 1 0 0 0 1.74 0l4.16-7.43a14.951 14.951 0 0 0 9.93-13.13h9.04v38h-23v-14a1 1 0 0 0 -2 0v14h-23zm52 42h-56v-38h2v35a1 1 0 0 0 1 1h50a1 1 0 0 0 1-1v-35h2z"/><path d="m11 38h17a1 1 0 0 0 0-2h-16v-10h4a1 1 0 0 0 0-2h-5a1 1 0 0 0 -1 1v12a1 1 0 0 0 1 1z"/><path d="m11 44h1a1 1 0 0 0 0-2h-1a1 1 0 0 0 0 2z"/><path d="m28 42h-12a1 1 0 0 0 0 2h12a1 1 0 0 0 0-2z"/><path d="m11 48h1a1 1 0 0 0 0-2h-1a1 1 0 0 0 0 2z"/><path d="m28 46h-12a1 1 0 0 0 0 2h12a1 1 0 0 0 0-2z"/><path d="m11 52h1a1 1 0 0 0 0-2h-1a1 1 0 0 0 0 2z"/><path d="m28 50h-12a1 1 0 0 0 0 2h12a1 1 0 0 0 0-2z"/><path d="m36 52h17a1 1 0 0 0 1-1v-8a1 1 0 0 0 -1-1h-17a1 1 0 0 0 -1 1v8a1 1 0 0 0 1 1zm1-8h15v6h-15z"/><path d="m38 38h15a1 1 0 0 0 0-2h-15a1 1 0 0 0 0 2z"/><path d="m40 34h13a1 1 0 0 0 0-2h-13a1 1 0 0 0 0 2z"/><path d="m45 30h8a1 1 0 0 0 0-2h-8a1 1 0 0 0 0 2z"/><path d="m47 26h6a1 1 0 0 0 0-2h-6a1 1 0 0 0 0 2z"/><path d="m32 14a3 3 0 1 0 -3-3 3 3 0 0 0 3 3zm0-4a1 1 0 1 1 -1 1 1 1 0 0 1 1-1z"/><path d="m36 25h-1v-9a1 1 0 0 0 -1-1h-6a1 1 0 0 0 0 2h1v8h-1a1 1 0 0 0 0 2h8a1 1 0 0 0 0-2zm-3 0h-2v-8h2z"/></g></g></svg>