<svg id="Layer_1" enable-background="new 0 0 512 512" viewBox="0 0 512 512" xmlns="http://www.w3.org/2000/svg"><g clip-rule="evenodd" fill-rule="evenodd"><path d="m387.094 219.195-28.226 16.299v-32.597zm-175.131-49.308h-49.518v-49.513h49.518zm0 42.757v49.513h-49.518v-49.513zm-68.711 161.46c0 16.679-13.562 30.241-30.262 30.246-16.679-.005-30.236-13.568-30.236-30.246 0-16.681 13.565-30.251 30.246-30.251 16.685 0 30.252 13.567 30.252 30.251zm9.222-69.19h59.489v49.518h-8.308l-1.123-2.144c-8.64-16.498-21.73-30.357-37.691-39.945zm107.667-263.665c0-2.291-1.855-4.146-4.147-4.146-2.291 0-4.146 1.855-4.146 4.146s1.855 4.146 4.146 4.146c2.292 0 4.147-1.855 4.147-4.146zm-69.883 41.395v-39.094h35.804c1.846 0 3.458-1.264 3.891-3.059 2.907-12.066 13.635-20.486 26.041-20.486s23.134 8.419 26.045 20.485c.433 1.795 2.04 3.061 3.886 3.061h35.8v39.094h-131.467z" fill="#9bc9ff"/><path d="m486.485 44.896-94.322 163.371-26.369-15.225 94.322-163.371c1.511-2.612 3.958-4.485 6.89-5.276 2.937-.786 6-.391 8.617 1.12l6.702 3.873c5.421 3.13 7.29 10.091 4.16 15.508zm-123.618 164.929 16.227 9.37-16.227 9.37zm140.188-177.678c-1.892-7.069-6.41-12.97-12.73-16.613l-6.702-3.873c-6.32-3.647-13.69-4.612-20.759-2.715-7.059 1.892-12.961 6.415-16.608 12.726l-98.322 170.298c-.179.306-.329.621-.471.946-.4.984-.598 2.019-.598 3.045v.024 46.436c0 2.857 1.52 5.501 4 6.928 1.238.715 2.617 1.073 4 1.073 1.379 0 2.758-.357 4-1.073l40.149-23.183c.009-.005.019-.009.028-.019l.052-.023c.08-.047.15-.108.24-.16.198-.132.409-.263.607-.409.08-.066.16-.141.24-.212.193-.155.372-.306.55-.475.104-.104.193-.217.283-.325.136-.151.278-.296.409-.461.221-.283.409-.574.588-.885l98.322-170.298c3.65-6.314 4.619-13.688 2.722-20.752zm-295.092 133.74h-41.518v-41.513h41.518zm15.996-43.56c0-7.695-6.259-13.954-13.954-13.954h-45.608c-7.695 0-13.954 6.259-13.954 13.954v45.608c0 7.695 6.259 13.954 13.954 13.954h45.608c7.695 0 13.954-6.259 13.954-13.954zm-15.996 135.83h-41.518v-41.513h41.518zm2.042-57.514h-45.608c-7.695 0-13.954 6.26-13.954 13.954v45.608c0 7.695 6.259 13.954 13.954 13.954h45.608c7.695 0 13.954-6.259 13.954-13.954v-45.608c0-7.695-6.259-13.954-13.954-13.954zm34.299 53.166c0-4.419 3.582-8 8.001-8h82.561c4.419 0 8.001 3.581 8.001 8s-3.581 8.001-8.001 8.001h-82.561c-4.419-.001-8.001-3.582-8.001-8.001zm117.241 92.269c0 4.419-3.581 8-8.001 8h-101.24c-4.419 0-8.001-3.581-8.001-8 0-4.414 3.582-8.001 8.001-8.001h101.24c4.42.001 8.001 3.587 8.001 8.001zm0-32.811c0 4.419-3.581 8.001-8.001 8.001h-101.24c-4.419 0-8.001-3.581-8.001-8.001 0-4.419 3.582-8 8.001-8h101.24c4.42-.001 8.001 3.581 8.001 8zm-18.679-92.275c0 4.424-3.581 8.001-8.001 8.001h-82.561c-4.419 0-8.001-3.576-8.001-8.001 0-4.414 3.582-8.001 8.001-8.001h82.561c4.42.001 8.001 3.587 8.001 8.001zm18.679-92.269c0 4.419-3.581 8.001-8.001 8.001h-101.24c-4.419 0-8.001-3.581-8.001-8.001 0-4.419 3.582-8.001 8.001-8.001h101.24c4.42 0 8.001 3.581 8.001 8.001zm-9.897 40.812h-99.343c-4.419 0-8.001-3.581-8.001-8.001 0-4.419 3.582-8.001 8.001-8.001h99.343c4.419 0 7.996 3.582 7.996 8.001s-3.577 8.001-7.996 8.001zm-87.507-128.286c0 4.499-3.647 8.146-8.146 8.146s-8.146-3.647-8.146-8.146 3.647-8.146 8.146-8.146c4.498-.001 8.146 3.646 8.146 8.146zm-79.427 410.404c-7.153-21.15-23.272-37.871-43.692-45.965 8.721-7.747 14.231-19.032 14.231-31.583 0-23.301-18.956-42.252-42.252-42.252s-42.248 18.952-42.248 42.252c0 12.551 5.506 23.837 14.227 31.583-20.42 8.095-36.539 24.816-43.692 45.965-10.862-14.754-17.295-32.968-17.295-52.653 0-49.081 39.927-89.008 89.008-89.008 49.076 0 89.004 39.927 89.004 89.008 0 19.685-6.429 37.899-17.291 52.653zm-97.959-77.549c0 14.471 11.765 26.242 26.237 26.246h.01.009c14.471-.005 26.242-11.775 26.242-26.246 0-14.476-11.775-26.251-26.251-26.251-14.473 0-26.247 11.775-26.247 26.251zm-32.582 91.625c15.695 13.855 36.294 22.275 58.828 22.275 22.533 0 43.132-8.419 58.827-22.275-4.937-28.406-29.546-49.373-58.818-49.377 0 0-.005 0-.009 0-.005 0-.005 0-.01 0-29.272.004-53.881 20.97-58.818 49.377zm52.239-397.114v225.592c2.179-.136 4.377-.216 6.589-.216.871 0 1.741.014 2.607.033v-218.326c0-4.419 3.582-8.001 8.001-8.001h54.648v-9.2h-61.731c-5.577 0-10.114 4.536-10.114 10.118zm87.846-21.065v31.094h123.467v-31.094h-31.8c-3.694 0-6.909-2.532-7.775-6.123-2.475-10.26-11.587-17.423-22.157-17.423s-19.681 7.163-22.152 17.423c-.866 3.591-4.085 6.123-7.779 6.123zm13.705 261.364h-41.062c16.57 9.954 30.181 24.345 39.175 41.518h1.887zm205.614-85.3c-4.424 0-8.001 3.581-8.001 8.001v170.275c0 5.577-4.532 10.114-10.113 10.114h-178.262c.376-3.026.621-6.094.729-9.196h170.454c4.41 0 8-3.582 8-8.001v-148.646c0-4.419-3.591-8-8-8-4.419 0-8.001 3.581-8.001 8v140.645h-163.088c-.828-7.121-2.367-14.029-4.551-20.646 6.386-1.275 11.215-6.923 11.215-13.681v-45.608c0-7.695-6.259-13.958-13.954-13.958h-45.608c-5.727 0-10.655 3.478-12.805 8.429-6.382-2.532-13.065-4.457-19.983-5.699v-211.945h46.648v2.946c0 4.419 3.586 8 8.001 8h139.468c4.419 0 8.001-3.582 8.001-8v-2.946h46.657v14.217c0 4.419 3.581 8 8.001 8 4.41 0 8-3.582 8-8v-22.217c0-4.419-3.591-8.001-8-8.001h-54.658v-9.2h61.736c3.501 0 6.711 1.788 8.584 4.786 1.52 2.424 4.127 3.756 6.791 3.756 1.445 0 2.918-.396 4.236-1.224 3.742-2.344 4.88-7.28 2.532-11.026-4.819-7.695-13.102-12.288-22.142-12.288h-61.736v-2.946c0-4.424-3.581-8-8.001-8h-34.045c-5.996-14.138-19.884-23.55-35.687-23.55s-29.691 9.412-35.687 23.55h-34.049c-4.414 0-8.001 3.577-8.001 8v2.945h-61.731c-14.401 0-26.115 11.714-26.115 26.115v227.832c-47.082 10.363-82.416 52.403-82.416 102.553 0 57.9 47.104 105.005 105.005 105.005 47.843 0 88.312-32.162 100.929-76h181.532c14.401 0 26.115-11.714 26.115-26.115v-170.276c0-4.419-3.581-8-8-8z" fill="#69f"/></g></svg>