<svg xmlns:xlink="http://www.w3.org/1999/xlink" xmlns="http://www.w3.org/2000/svg" class="thmicon-fill" width="80" height="80"><defs><symbol id="setting" viewBox="0 0 80 80">
      <g>
        <g>
          <g>
            <path style="opacity:0.11;" d="M57.5,26l-1,4.2c-1.8,7.3-9.3,12.1-16.8,10.6L35.4,40
                            c-7.5-1.4-12.2-8.5-10.4-15.8l1-4.2c1.8-7.3,9.3-12.1,16.8-10.6l4.3,0.8C54.6,11.6,59.2,18.7,57.5,26z"></path>
            <g>
              <g>
                <g>
                  <path style="fill:none;" d="M71.1,43.2c-0.6-1.4-1.4-2.8-2.3-4l2.5-3.3l-8.1-6.3l-2.5,3.3c-2.9-1.2-6-1.6-9.1-1.2L50,27.9
                                        l-9.5,3.9l1.6,3.8c-2.5,1.9-4.4,4.4-5.6,7.3l-4.1-0.6L31,52.5l4.1,0.6c0.4,3.1,1.6,6,3.5,8.5l-2.5,3.3l8.1,6.3l2.5-3.3
                                        c2.9,1.2,6,1.6,9.1,1.2l1.6,3.8l9.5-3.9l-1.6-3.8c2.5-1.9,4.4-4.4,5.6-7.3l4.1,0.6l1.4-10.2l-4.1-0.6
                                        C72.1,46.2,71.7,44.7,71.1,43.2z"></path>
                  <path d="M57.1,73.7l-1.7-3.9c-2.9,0.3-5.8-0.1-8.5-1.1L44.3,72l-9-7l2.6-3.4c-1.7-2.4-2.8-5.1-3.3-8
                                        L30.3,53l1.6-11.4l4.2,0.6c1.2-2.7,3-5,5.2-6.8l-1.7-3.9l10.6-4.4l1.7,3.9c2.9-0.3,5.8,0.1,8.5,1.1l2.6-3.4l9,7l-2.6,3.4
                                        c0.8,1.1,1.5,2.4,2.1,3.8l0,0c0.6,1.4,0.9,2.8,1.2,4.2l4.2,0.6l-1.6,11.4l-4.2-0.6c-1.2,2.7-3,5-5.2,6.8l1.7,3.9L57.1,73.7z
                                         M56.2,68.4l1.5,3.7l8.4-3.4L64.6,65l0.4-0.3c2.4-1.8,4.2-4.2,5.4-7.1l0.2-0.4l4,0.6l1.2-9l-4-0.6l-0.1-0.4
                                        c-0.2-1.4-0.6-2.9-1.2-4.3c-0.6-1.4-1.4-2.7-2.2-3.9L68,39.2l2.4-3.2l-7.2-5.6l-2.4,3.2l-0.4-0.2c-2.8-1.2-5.8-1.6-8.8-1.2
                                        l-0.5,0.1l-1.5-3.7L41.2,32l1.5,3.7L42.3,36c-2.4,1.8-4.2,4.2-5.4,7.1l-0.2,0.4l-4-0.6l-1.2,9l4,0.6l0.1,0.5
                                        c0.4,3,1.6,5.8,3.4,8.2l0.3,0.4l-2.4,3.2l7.2,5.6l2.4-3.2l0.4,0.2c2.8,1.2,5.8,1.5,8.8,1.2L56.2,68.4z"></path>
                </g>
                <g>
                  <circle style="fill:none;" cx="53.6" cy="50.4" r="8.6"></circle>
                  <path d="M53.6,59.6c-5.1,0-9.2-4.1-9.2-9.2s4.1-9.2,9.2-9.2s9.2,4.1,9.2,9.2S58.7,59.6,53.6,59.6z
                                         M53.6,42.4c-4.4,0-8,3.6-8,8s3.6,8,8,8s8-3.6,8-8S58,42.4,53.6,42.4z"></path>
                </g>
              </g>
              <g>
                <g>
                  <path style="fill:none;" d="M34.1,26.7c0-1.1-0.1-2.2-0.4-3.3l2.6-1.5l-3.7-6.4L30,17c-1.6-1.6-3.6-2.7-5.7-3.3v-3h-7.4v3
                                        c-2.2,0.6-4.1,1.8-5.7,3.3l-2.6-1.5l-3.7,6.4l2.6,1.5c-0.6,2.2-0.6,4.4,0,6.6l-2.6,1.5l3.7,6.4l2.6-1.5
                                        c1.6,1.6,3.6,2.7,5.7,3.3v3h7.4v-3c2.2-0.6,4.1-1.7,5.7-3.3l2.6,1.5l3.7-6.4L33.7,30C33.9,29,34.1,27.8,34.1,26.7z"></path>
                  <path d="M24.9,43.3h-8.6v-3.2c-2-0.6-3.7-1.7-5.2-3l-2.7,1.6l-4.3-7.4l2.7-1.6c-0.5-2-0.5-4,0-6
                                        l-2.7-1.6l4.3-7.4l2.7,1.6c1.6-1.4,3.3-2.4,5.2-3v-3.2h8.6v3.2c2,0.6,3.7,1.7,5.2,3l2.7-1.6l4.3,7.4l-2.7,1.6
                                        c0.2,0.9,0.3,1.9,0.3,3c0,1-0.2,2.1-0.3,3l2.7,1.6l-4.3,7.4l-2.7-1.6c-1.5,1.4-3.2,2.4-5.2,3L24.9,43.3z M17.5,42.1h6.2v-2.9
                                        l0.4-0.1c2.1-0.6,3.9-1.6,5.4-3.1l0.3-0.3l2.5,1.4l3.1-5.4L33,30.3l0.1-0.4c0.2-0.8,0.4-2.1,0.4-3.2c0-1.2-0.1-2.2-0.4-3.1
                                        L33,23.1l2.5-1.4l-3.1-5.4l-2.5,1.4l-0.3-0.3c-1.5-1.5-3.3-2.5-5.4-3.1l-0.4-0.1v-2.9h-6.2v2.9l-0.4,0.1
                                        c-1.9,0.5-3.8,1.6-5.4,3.2l-0.3,0.3L9,16.4l-3.1,5.4l2.5,1.4l-0.1,0.4c-0.6,2.1-0.6,4.2,0,6.3l0.1,0.4l-2.5,1.4L9,37.1
                                        l2.5-1.4l0.3,0.3c1.5,1.5,3.3,2.5,5.4,3.1l0.4,0.1v2.9C17.6,42.1,17.5,42.1,17.5,42.1z"></path>
                </g>
                <g>
                  <circle style="fill:none;" cx="20.5" cy="26.7" r="6.2"></circle>
                  <path d="M20.5,33.5c-3.7,0-6.8-3.1-6.8-6.8s3.1-6.8,6.8-6.8s6.8,3.1,6.8,6.8S24.2,33.5,20.5,33.5z
                                         M20.5,21.1c-3.1,0-5.6,2.5-5.6,5.6s2.5,5.6,5.6,5.6s5.6-2.5,5.6-5.6S23.6,21.1,20.5,21.1z"></path>
                </g>
              </g>
            </g>
          </g>
        </g>
      </g>
      <circle style="opacity:0.3;" cx="20.5" cy="26.7" r="6.2"></circle>
    </symbol></defs>
                        <use href="#setting" fill="#3F51B5"></use>
                    </svg>