<svg xmlns="http://www.w3.org/2000/svg" viewBox="0 0 373.79 255.45"><defs><style>.cls-1,.cls-4{fill:#4053a0;}.cls-2{fill:none;stroke:#4053a0;}.cls-2,.cls-3,.cls-4{stroke-linecap:round;stroke-miterlimit:10;stroke-width:7px;}.cls-3{fill:#fff;}.cls-3,.cls-4{stroke:#fff;}</style></defs><g id="Layer_6" data-name="Layer 6"><path class="cls-1" d="M234.34,141.57v3.66a12,12,0,0,1-12,12H166.17a12,12,0,0,1-12-12v-3.66a23.43,23.43,0,0,1,16.56-22.32c5,6.26,13.65,10.41,23.52,10.41s18.54-4.14,23.52-10.4A23.41,23.41,0,0,1,234.34,141.57Z"/><path class="cls-2" d="M101.44,103.25c-12.35,48.46,18.44,88.28,22.86,93.81"/><path class="cls-2" d="M250.94,48.47a102,102,0,0,0-82-13.11"/><path class="cls-2" d="M218.83,223.41a102,102,0,0,1-81.61-15.12"/><circle class="cls-1" cx="125.15" cy="59.1" r="43.83"/><circle class="cls-1" cx="262.26" cy="197.4" r="43.83"/><circle class="cls-1" cx="194.38" cy="99.32" r="22.77"/><polyline class="cls-2" points="108.51 196.86 125.74 199.2 127.68 182.23"/><path class="cls-2" d="M288.22,154c14-54.63-18.44-88.28-22.86-93.81"/><polyline class="cls-2" points="281.54 60.37 264.32 57.89 262.24 74.84"/><line class="cls-3" x1="242.17" y1="188.64" x2="272.13" y2="188.64"/><line class="cls-4" x1="242.09" y1="205.49" x2="286.34" y2="205.49"/><line class="cls-3" x1="102.26" y1="50.68" x2="132.21" y2="50.68"/><line class="cls-4" x1="102.17" y1="67.53" x2="146.43" y2="67.53"/></g></svg>