<svg id="Layer_1" enable-background="new 0 0 512 512" viewBox="0 0 512 512" xmlns="http://www.w3.org/2000/svg"><g clip-rule="evenodd" fill-rule="evenodd"><g><g><path d="m23.509 496 150.057-.001c4.097 0 7.13-3.712 6.312-7.728-7.715-37.864-41.199-66.356-81.34-66.356-40.142 0-73.626 28.492-81.341 66.356-.818 4.016 2.216 7.729 6.312 7.729z" fill="#8ac9fe"/><path d="m158.895 495.999h14.671c4.097 0 7.13-3.713 6.312-7.727-7.715-37.864-41.199-66.356-81.34-66.356-2.472 0-4.919.109-7.336.321 36.832 3.225 66.765 30.503 74.005 66.036.818 4.014-2.215 7.726-6.312 7.726z" fill="#60b7ff"/><ellipse cx="98.538" cy="379.942" fill="#f6dccd" rx="41.973" ry="41.973" transform="matrix(.924 -.383 .383 .924 -137.897 66.63)"/><path d="m98.538 337.97c23.181 0 41.973 18.792 41.973 41.973s-18.792 41.973-41.973 41.973c-1.984 0-3.937-.141-5.848-.408 20.412-2.846 36.125-20.369 36.125-41.565s-15.713-38.719-36.125-41.565c1.912-.267 3.864-.408 5.848-.408z" fill="#f1cbbc"/></g><g><path d="m157.717 248.522v84.336c0 8.686 7.107 15.793 15.793 15.793h164.977c8.686 0 15.793-7.107 15.793-15.793v-84.334z" fill="#ecba78"/><path d="m157.717 248.522v84.336c0 8.686 7.107 15.793 15.793 15.793h12.535c-8.686 0-15.793-7.107-15.793-15.793v-84.336z" fill="#e3a76f"/><path d="m349.363 265.393c1.737-1.099 3.39-2.269 4.917-3.522 5.681-4.664 9.618-10.487 9.618-18.132v-38.5c0-4.457-3.636-8.092-8.092-8.092-67.656 0-131.96 0-199.616 0-4.457 0-8.092 3.635-8.092 8.092v38.5c0 7.644 3.937 13.467 9.618 18.13 1.528 1.254 3.181 2.424 4.918 3.523 32.855 20.788 154.114 20.636 186.729.001z" fill="#e3a76f"/><path d="m170.251 197.147h-14.061c-4.457 0-8.092 3.635-8.092 8.092v38.5c0 7.644 3.937 13.467 9.618 18.13 1.528 1.254 3.181 2.424 4.918 3.523 2.168 1.372 4.73 2.65 7.617 3.839z" fill="#c48958"/><path d="m199.654 197.147h112.691v26.314c0 5.58-4.565 10.146-10.146 10.146h-92.399c-5.58 0-10.146-4.565-10.146-10.146z" fill="#c48958"/><path d="m236.111 283.479c0 10.984 8.904 19.888 19.888 19.888s19.888-8.904 19.888-19.888c0-10.949-8.869-19.887-19.888-19.887s-19.888 8.938-19.888 19.887z" fill="#837683"/><path d="m236.111 283.479c0 10.984 8.904 19.888 19.888 19.888 1.067 0 2.113-.085 3.134-.247-9.495-1.503-16.755-9.724-16.755-19.641 0-9.889 7.236-18.137 16.755-19.641-1.021-.161-2.067-.246-3.134-.246-11.019 0-19.888 8.938-19.888 19.887z" fill="#685e68"/></g><g><path d="m338.433 174.03 150.057-.001c4.097 0 7.131-3.713 6.312-7.728-7.715-37.864-41.199-66.356-81.34-66.356-40.143 0-73.627 28.492-81.341 66.357-.818 4.015 2.216 7.728 6.312 7.728z" fill="#8ac9fe"/><path d="m473.819 174.03h14.671c4.097 0 7.131-3.713 6.312-7.728-7.715-37.864-41.199-66.356-81.34-66.356-2.472 0-4.919.109-7.336.321 36.832 3.225 66.765 30.503 74.005 66.036.818 4.014-2.215 7.727-6.312 7.727z" fill="#60b7ff"/><ellipse cx="413.462" cy="57.972" fill="#f6dccd" rx="41.972" ry="41.973" transform="matrix(.995 -.099 .099 .995 -3.7 41.024)"/><path d="m413.462 16c23.181 0 41.973 18.792 41.973 41.973s-18.792 41.973-41.973 41.973c-1.985 0-3.936-.142-5.848-.408 20.412-2.846 36.125-20.369 36.125-41.565s-15.713-38.719-36.125-41.565c1.912-.267 3.864-.408 5.848-.408z" fill="#f1cbbc"/></g></g><path d="m355.805 205.148h-35.467v18.321c0 10-8.144 18.139-18.143 18.139h-92.395c-10.008 0-18.148-8.139-18.148-18.139v-18.321h-35.462c-.038 0-.09.061-.09.09v38.501c0 3.459 1.12 8.758 10.813 14.898 10.592 6.701 34.116 11.661 63.613 13.511 4.355-9.739 14.127-16.55 25.468-16.55s21.114 6.801 25.468 16.541c29.535-1.861 53.064-6.82 63.623-13.501 9.693-6.14 10.813-11.439 10.813-14.898v-38.501c.002-.031-.05-.091-.093-.091zm-99.81 90.22c-6.553 0-11.887-5.329-11.887-11.889 0-6.55 5.334-11.881 11.887-11.881 6.558 0 11.887 5.331 11.887 11.881 0 6.56-5.329 11.889-11.887 11.889zm90.282 37.491v-56.86c-17.602 7.72-44.063 10.8-62.771 12.04-2.18 13.211-13.68 23.33-27.511 23.33-13.817 0-25.317-10.11-27.506-23.319-18.694-1.221-45.141-4.31-62.771-12.041v56.851c0 4.299 3.498 7.79 7.791 7.79h164.977c4.289-.001 7.791-3.492 7.791-7.791zm-124.407-143.711h68.255v-8.898c0-4.912-3.992-8.9-8.902-8.9h-50.451c-4.91 0-8.902 3.988-8.902 8.9zm-14.217 34.321v-18.321h96.684v18.321c0 1.161-.979 2.141-2.142 2.141h-92.395c-1.163-.001-2.147-.981-2.147-2.141zm98.473-43.22v8.898h49.679c8.869 0 16.091 7.221 16.091 16.091v38.501c0 8.1-3.239 15.349-9.618 21.64v67.48c0 13.119-10.672 23.79-23.792 23.79h-164.977c-13.12 0-23.792-10.671-23.792-23.79v-67.48c-6.379-6.291-9.618-13.53-9.618-21.64v-38.501c0-8.869 7.221-16.091 16.091-16.091h49.679v-8.898c0-13.731 11.171-24.901 24.903-24.901h50.451c13.732.001 24.903 11.17 24.903 24.901zm-134.486 307.751c-7.706-33.67-37.703-58.082-73.104-58.082-35.406 0-65.402 24.411-73.104 58.082zm-73.103-74.082c18.731 0 33.974-15.239 33.974-33.979 0-18.729-15.243-33.97-33.974-33.97-18.736 0-33.975 15.241-33.975 33.97 0 18.74 15.238 33.979 33.975 33.979zm90.493 81.231c.24 2.26-.49 4.509-2.005 6.199-1.516 1.69-3.681 2.651-5.95 2.651h-165.076c-2.274 0-4.434-.962-5.95-2.651-1.521-1.69-2.246-3.939-2.005-6.199 3.809-35.59 27.681-64.44 59.697-75.891-11.665-9.159-19.179-23.369-19.179-39.319 0-27.55 22.422-49.97 49.976-49.97 27.558 0 49.975 22.42 49.975 49.97 0 15.951-7.513 30.16-19.179 39.319 32.011 11.451 55.888 40.301 59.696 75.891zm297.537-329.12c-7.711-33.671-37.703-58.082-73.108-58.082-35.401 0-65.402 24.411-73.104 58.082zm-107.083-108.051c0 18.731 15.243 33.97 33.975 33.97 18.736 0 33.979-15.239 33.979-33.97 0-18.74-15.243-33.981-33.979-33.981-18.732 0-33.975 15.241-33.975 33.981zm122.463 121.4c1.521-1.69 2.25-3.939 2.01-6.199-3.809-35.59-27.69-64.44-59.702-75.891 11.661-9.16 19.183-23.368 19.183-39.31 0-27.56-22.422-49.977-49.98-49.977-27.554 0-49.971 22.417-49.971 49.977 0 15.942 7.508 30.15 19.179 39.31-32.021 11.451-55.888 40.302-59.702 75.891-.24 2.26.494 4.509 2.001 6.199 1.521 1.69 3.681 2.65 5.951 2.65h165.08c2.27-.001 4.43-.96 5.951-2.65zm-88.488 46.66c4.42 0 7.998 3.58 7.998 8.001v186.9c0 4.421-3.578 7.999-7.998 7.999h-192.643l4.387 3.431c3.484 2.72 4.105 7.74 1.384 11.23-1.577 2.019-3.931 3.069-6.308 3.069-1.723 0-3.46-.55-4.92-1.69l-22.709-17.74c-1.939-1.51-3.074-3.84-3.074-6.3 0-2.461 1.134-4.79 3.074-6.309l22.709-17.731c3.479-2.72 8.507-2.1 11.228 1.379 2.721 3.481 2.1 8.51-1.384 11.23l-4.387 3.431h184.64v-178.899c0-4.421 3.582-8.001 8.003-8.001zm-322.921 51.93v-186.9c0-4.42 3.578-7.999 7.998-7.999h197.04l-4.392-3.431c-3.484-2.72-4.1-7.749-1.384-11.23 2.721-3.479 7.749-4.099 11.227-1.379l22.71 17.73c1.939 1.519 3.079 3.84 3.079 6.309 0 2.461-1.139 4.78-3.079 6.3l-22.71 17.73c-1.459 1.15-3.191 1.699-4.919 1.699-2.377 0-4.731-1.059-6.308-3.08-2.716-3.479-2.1-8.51 1.384-11.23l4.383-3.42h-189.032v178.901c0 4.421-3.578 8.001-7.998 8.001-4.421 0-7.999-3.58-7.999-8.001z"/></g></svg>