<svg xmlns="http://www.w3.org/2000/svg" xmlns:xlink="http://www.w3.org/1999/xlink" version="1.1" id="Layer_1" x="0px" y="0px" width="120" height="120" viewBox="0 0 120 120" style="enable-background:new 0 0 120 120;" xml:space="preserve">
<style type="text/css">
	.st0{fill:#FFFFFF;}
	.st1{fill:none;}
	.st2{fill:#3F51B5;}
	.st3{fill:#fabb00;}
</style>
<g>
	<path class="st0" d="M60.4,5.5C31,5.5,5.4,31,5.4,60.4c0,14.4,7.3,29.4,17,39c2-11.6,25.8-22,38-22s36.2,10.6,38,22.3   c9.6-9.6,17.2-24.6,17-39.2C115.3,31.3,89.7,5.5,60.4,5.5z M60.6,72.1c-10.6,0-19-8.4-19-19s8.4-19,19-19s19,8.4,19,19   C79.6,63.7,71.3,72.1,60.6,72.1z"/>
	<path class="st3" d="M60.6,0.9C27.7,0.9,1.1,27.5,1.1,60.4s26.6,59.5,59.5,59.5s59.5-26.6,59.5-59.5C120.1,27.8,93.3,0.9,60.6,0.9z    M98.4,99.7c-1.8-11.6-25.8-22.3-38-22.3s-36,10.4-38,22c-9.6-9.6-17-24.3-17-39C5.4,31,31,5.5,60.4,5.5   c29.4,0,54.9,25.6,54.9,54.9C115.6,75.1,108,90,98.4,99.7z"/>
	<path class="st0" d="M60.6,34.1c-10.6,0-19,8.4-19,19s8.4,19,19,19s19-8.4,19-19S71.3,34.1,60.6,34.1z"/>
</g>
<g>
	<path class="st1" d="M59.7,5.1C30.4,5.1,4.8,30.6,4.8,60c0,14.4,7.3,29.4,17,39c2-11.6,25.8-22,38-22s36.2,10.6,38,22.3   c9.6-9.6,17.2-24.6,17-39.2C114.7,30.9,89.1,5.1,59.7,5.1z M60,71.6c-10.6,0-19-8.4-19-19s8.4-19,19-19s19,8.4,19,19   C79,63.3,70.6,71.6,60,71.6z"/>
	<path class="st2" d="M60,0.5C27.1,0.5,0.5,27.1,0.5,60s26.6,59.5,59.5,59.5s59.5-26.6,59.5-59.5C119.5,27.3,92.7,0.5,60,0.5z    M97.7,99.2C96,87.6,71.9,77,59.7,77s-36,10.4-38,22c-9.6-9.6-17-24.3-17-39c0-29.4,25.6-54.9,54.9-54.9   c29.4,0,54.9,25.6,54.9,54.9C114.9,74.7,107.3,89.6,97.7,99.2z"/>
	<path class="st2" d="M60,33.7c-10.6,0-19,8.4-19,19s8.4,19,19,19s19-8.4,19-19S70.6,33.7,60,33.7z"/>
</g>
</svg>