<svg xmlns:xlink="http://www.w3.org/1999/xlink" xmlns="http://www.w3.org/2000/svg" class="thmicon-fill" width="80" height="80"><defs><symbol id="admin-userssettings" viewBox="0 0 80 80">
      <g>
        <g>
          <g>
            <path d="M40.4,15.1L14.5,11h-0.1h-0.1c-2-0.3-4,1.7-4.3,3.6l-1.2-0.2c0.2-1.3,0.9-2.5,2-3.4
									c1.1-0.9,2.4-1.3,3.6-1h0.1l26,3.9L40.4,15.1z"></path>
            <g>
              <path id="Path_7950_2_" style="opacity:0.11;" d="M61.3,33c13,0,16.1,12.6,16.1,23.2
										S60.9,72.8,47.9,72.8s7.9-10.2,7.9-20.8S48.3,33,61.3,33z"></path>
              <g id="Group_5729_4_">
                <g id="Group_5728_4_">
                  <path d="M20.9,42.6c-3.7,0-6.8-3.1-6.8-6.8s3.1-6.8,6.8-6.8s6.8,3.1,6.8,6.8S24.6,42.6,20.9,42.6z
												 M20.9,30.2c-3.1,0-5.6,2.5-5.6,5.6s2.5,5.6,5.6,5.6s5.6-2.5,5.6-5.6S24,30.2,20.9,30.2z"></path>
                </g>
              </g>
              <path d="M33.1,54h-1.2c0-5.2-4.9-9.4-11-9.4s-11,4.2-11,9.4H8.7c0-5.8,5.5-10.6,12.2-10.6
										S33.1,48.2,33.1,54z"></path>
              <path d="M67.1,65H7.9C5.2,65,3,62.8,3,60.1V18.8C3,16.2,5.2,14,7.9,14h59.2c2.7,0,4.9,2.2,4.9,4.9v41.2
										C72,62.8,69.8,65,67.1,65z M4,18.6v41.7c0,2,1.7,3.7,3.7,3.7h59.6c2,0,3.7-1.7,3.7-3.7V18.7c0-2-1.7-3.7-3.7-3.7L7.6,15
										C5.6,15,4,16.6,4,18.6z"></path>
              <path d="M71.9,54.5l-1.2-0.2l5.1-28.8c0.2-0.9-0.1-1.9-0.6-2.7c-0.6-0.8-1.4-1.3-2.4-1.5L70.9,21l0.2-1.2
										l1.9,0.3c1.3,0.2,2.4,0.9,3.2,2c0.8,1,1.1,2.3,0.8,3.6v0.2L71.9,54.5z"></path>
              <path d="M76.6,28l-5.4-1l0.2-1l4.4,0.8l0.2-1.2l0,0c0.2-1.1-0.1-2.1-0.6-2.9c-0.6-0.8-1.5-1.4-2.4-1.5
										l0.2-1c1.2,0.2,2.3,0.9,3.1,1.9c0.7,1,1,2.3,0.8,3.5l0,0L76.6,28z"></path>
              <path d="M72,22H3v-3.6c-0.1-1.1,0.4-2.1,1.1-2.9C5,14.6,6.3,14,7.8,14h59.3c2.7,0,4.9,2.2,4.9,4.9V22z
										 M4,21h67v-2.3c0-2-1.7-3.7-3.7-3.7H7.6c-1.1,0-2.1,0.4-2.8,1.1c-0.6,0.6-0.9,1.3-0.8,2.3L4,21z"></path>
              <rect x="39" y="34" width="25" height="1"></rect>
              <rect x="39" y="39" width="23" height="1"></rect>
              <rect x="39" y="44" width="21" height="1"></rect>
            </g>
          </g>
        </g>
        <g id="Group_5729_3_" style="opacity:0.3;">
          <g id="Group_5728_3_">
            <circle id="Ellipse_1091_1_" cx="20.9" cy="35.8" r="6.2"></circle>
          </g>
        </g>
      </g>
    </symbol></defs>
                        <use href="#admin-userssettings" stroke="2" fill="#3F51B5"></use>
                    </svg>