<svg xmlns="http://www.w3.org/2000/svg" viewBox="0 0 586.723 290.846"><defs><style>.cls-1{fill:#2f348b;}.cls-2{fill:#c1bbdd;}.cls-3{fill:#e52528;}.cls-4{fill:none;stroke:#fff;stroke-miterlimit:10;stroke-width:4px;}.cls-5{fill:#009e5e;}.cls-6{fill:#f9e927;}</style></defs><g id="Layer_2" data-name="Layer 2"><path class="cls-1" d="M459.093,265.731a76.994,76.994,0,0,1-30.06-2.44,75.7,75.7,0,0,1-15.36-6.27l-19.93-28.61a57.349,57.349,0,0,0,33.43-8.15Z"/></g><g id="Layer_5" data-name="Layer 5"><path class="cls-1" d="M311.44,265.488c-.11.06-.23.11-.34.16a88.478,88.478,0,0,1-32.03-2.1,87.217,87.217,0,0,1-22.68-9.32l-47.68-47.72-5.73-5.74v64.14H172V102.178a46.415,46.415,0,0,1,30.98,34.21v31.67l5.49-5.62,46.69-47.75a87.309,87.309,0,0,1,22.58-9.57,88.756,88.756,0,0,1,32.01-2.45c.11.05.23.1.34.16l-79.72,81.53Z"/><polygon class="cls-2" points="314.812 143.892 284.174 143.892 243.961 183.913 301.535 241.424 301.791 210.019 275.493 184.214 315.663 143.892 314.812 143.892"/><path class="cls-1" d="M401.62,218.448H343.41v21.68a31.819,31.819,0,0,1-9.53,16.61,35.755,35.755,0,0,1-22.44,8.54v-49.39s1.07-26.42,27.76-29.36l61.78-.13s22.6-4.21,22.43-26.85-23.15-25.19-23.15-25.19l-105.7-.17,31.66-32.01h73.53s52.68,3.93,55.74,56.78C455.49,158.958,458.56,208.738,401.62,218.448Z"/><path class="cls-1" d="M498.96,140.568v88.19a53.147,53.147,0,0,1-32.17,37.07V140.568h.53c2.09,3.33,8.26,5.73,15.56,5.73s13.46-2.4,15.55-5.73Z"/><circle class="cls-3" cx="464.259" cy="40.062" r="29.617"/><circle class="cls-4" cx="464.259" cy="40.062" r="13.617"/><circle class="cls-5" cx="532.344" cy="57.594" r="29.617"/><circle class="cls-4" cx="532.344" cy="57.594" r="13.617"/><circle class="cls-6" cx="482.875" cy="107.892" r="29.617"/><circle class="cls-4" cx="482.875" cy="107.892" r="13.617"/><path class="cls-1" d="M93.917,112.4c-38.19,0-69.15,33.13-69.15,73.99s30.96,73.98,69.15,73.98,69.16-33.12,69.16-73.98S132.117,112.4,93.917,112.4Zm-.18,125.71c-22.22,0-40.23-23.16-40.23-51.72s18.01-51.72,40.23-51.72,40.24,23.15,40.24,51.72S115.957,238.111,93.737,238.111Z"/></g></svg>