<svg xmlns="http://www.w3.org/2000/svg" viewBox="0 0 595.276 300.338"><defs><style>.cls-1{fill:#4053a0;}.cls-2{fill:#c1bbdd;}.cls-3{fill:#e52528;}.cls-4{fill:none;stroke:#fff;stroke-miterlimit:10;stroke-width:4px;}.cls-5{fill:#009e5e;}.cls-6{fill:#f9e927;}</style></defs><g id="Layer_2" data-name="Layer 2"><path class="cls-1" d="M321.415,274.456c-.11.06-.23.11-.34.159a88.453,88.453,0,0,1-32.03-2.1,87.251,87.251,0,0,1-22.68-9.32l-47.68-47.72-5.73-5.741v64.141h-30.98V111.146a46.411,46.411,0,0,1,30.98,34.21v31.67l5.49-5.62,46.69-47.75a87.309,87.309,0,0,1,22.58-9.57,88.711,88.711,0,0,1,32.01-2.45c.11.05.23.1.34.159l-79.72,81.531Z"/><polygon class="cls-2" points="324.787 152.859 294.149 152.859 253.936 192.88 311.511 250.391 311.766 218.987 285.468 193.181 325.638 152.859 324.787 152.859"/><path class="cls-1" d="M411.6,227.416h-58.21V249.1a31.819,31.819,0,0,1-9.53,16.61,35.754,35.754,0,0,1-22.44,8.539V224.856s1.07-26.42,27.76-29.361l61.78-.13s22.6-4.209,22.43-26.849-23.15-25.19-23.15-25.19l-105.7-.17,31.66-32.01h73.53s52.68,3.93,55.74,56.779C465.465,167.925,468.535,217.706,411.6,227.416Z"/><path class="cls-1" d="M508.935,149.536v88.19a53.143,53.143,0,0,1-32.17,37.069V149.536h.53c2.09,3.329,8.26,5.73,15.56,5.73s13.46-2.4,15.55-5.73Z"/><circle class="cls-3" cx="474.234" cy="49.029" r="29.617"/><circle class="cls-4" cx="474.234" cy="49.029" r="13.617"/><circle class="cls-5" cx="542.319" cy="66.561" r="29.617"/><circle class="cls-4" cx="542.319" cy="66.561" r="13.617"/><circle class="cls-6" cx="492.85" cy="116.859" r="29.617"/><circle class="cls-4" cx="492.85" cy="116.859" r="13.617"/><path class="cls-1" d="M103.9,121.375c-38.2,0-69.16,33.12-69.16,73.98s30.96,73.99,69.16,73.99,69.16-33.13,69.16-73.99S142.09,121.375,103.9,121.375Zm-.19,125.7c-22.22,0-40.23-23.15-40.23-51.72s18.01-51.72,40.23-51.72,40.24,23.16,40.24,51.72S125.94,247.075,103.71,247.075Z"/><path class="cls-1" d="M470.776,274.7a76.994,76.994,0,0,1-30.06-2.44,75.7,75.7,0,0,1-15.36-6.27l-19.93-28.61a57.349,57.349,0,0,0,33.43-8.15Z"/></g></svg>